<?xml version="1.0" encoding="UTF-8" standalone="no"?>
<!DOCTYPE svg PUBLIC "-//W3C//DTD SVG 20010904//EN"
              "http://www.w3.org/TR/2001/REC-SVG-20010904/DTD/svg10.dtd">

<svg xmlns="http://www.w3.org/2000/svg"
     width="120" height="120"
     viewBox="0 0 945 945">
  <path id="Selection"
        fill="#236d6d" stroke="none" stroke-width="0"
        d="M 467.00,23.43
           C 504.56,18.79 519.87,51.68 538.87,77.00
             538.87,77.00 584.32,134.00 584.32,134.00
             584.32,134.00 592.68,143.00 592.68,143.00
             592.68,143.00 634.09,190.00 634.09,190.00
             634.09,190.00 682.63,240.33 682.63,240.33
             682.63,240.33 710.00,267.16 710.00,267.16
             710.00,267.16 754.01,310.09 754.01,310.09
             785.54,340.03 818.66,370.75 854.00,396.14
             854.00,396.14 889.00,419.75 889.00,419.75
             897.47,425.08 911.82,434.77 917.19,443.00
             924.18,453.73 925.14,463.70 925.00,476.00
             924.83,490.52 915.16,505.41 903.83,513.97
             903.83,513.97 890.00,522.88 890.00,522.88
             890.00,522.88 853.00,547.74 853.00,547.74
             853.00,547.74 838.00,559.50 838.00,559.50
             838.00,559.50 821.72,572.45 821.72,572.45
             821.72,572.45 793.00,597.17 793.00,597.17
             793.00,597.17 727.91,658.84 727.91,658.84
             727.91,658.84 657.04,729.00 657.04,729.00
             657.04,729.00 598.29,793.00 598.29,793.00
             598.29,793.00 574.74,820.58 574.74,820.58
             574.74,820.58 530.15,877.00 530.15,877.00
             514.43,898.34 505.79,915.17 477.00,918.71
             470.89,919.47 466.88,918.88 461.00,917.37
             434.74,910.62 424.36,886.92 408.99,867.00
             364.71,809.64 316.22,755.22 265.00,704.00
             210.90,649.90 155.89,595.72 95.00,549.24
             95.00,549.24 66.00,529.06 66.00,529.06
             46.43,516.91 26.87,506.78 22.09,482.00
             19.13,466.62 23.34,448.87 34.26,437.30
             43.31,427.71 55.16,421.71 66.00,414.49
             83.89,402.56 101.60,390.06 118.00,376.13
             118.00,376.13 163.00,337.83 163.00,337.83
             163.00,337.83 175.00,326.09 175.00,326.09
             175.00,326.09 225.46,278.20 225.46,278.20
             225.46,278.20 291.96,212.00 291.96,212.00
             291.96,212.00 366.74,128.72 366.74,128.72
             366.74,128.72 407.50,78.00 407.50,78.00
             407.50,78.00 419.77,61.00 419.77,61.00
             434.52,41.59 440.54,27.76 467.00,23.43 Z
           M 472.00,373.00
           C 478.81,369.78 485.19,360.88 490.08,355.00
             503.24,339.17 515.36,322.34 526.43,305.00
             543.81,277.78 558.51,248.46 566.47,217.00
             568.58,208.69 571.90,196.39 572.00,188.00
             572.06,182.89 572.25,178.02 571.11,173.00
             565.48,148.03 549.22,137.52 527.00,128.00
             490.49,112.35 458.82,111.97 422.00,127.14
             406.94,133.34 389.60,142.29 381.17,157.00
             372.51,172.13 373.85,184.72 376.59,201.00
             381.44,229.89 393.76,257.26 407.25,283.00
             416.89,301.39 437.93,331.58 451.00,348.00
             451.00,348.00 472.00,373.00 472.00,373.00 Z
           M 454.00,394.00
           C 448.07,390.54 438.31,379.32 433.00,374.00
             419.79,360.77 402.19,338.37 390.88,323.00
             390.88,323.00 368.85,293.66 368.85,293.66
             363.79,288.12 358.81,282.23 353.00,277.46
             334.33,262.15 304.46,250.79 281.00,261.52
             277.72,263.02 274.90,265.28 272.04,267.45
             266.02,272.01 263.19,277.04 260.46,284.00
             258.38,289.32 256.14,298.29 256.01,304.00
             255.84,311.46 257.24,318.86 259.29,326.00
             268.13,356.73 291.48,371.41 316.00,388.91
             316.00,388.91 356.00,417.89 356.00,417.89
             356.00,417.89 384.00,441.02 384.00,441.02
             386.39,443.25 392.75,449.74 396.00,449.67
             399.33,449.59 409.00,440.03 411.83,437.46
             411.83,437.46 438.71,411.44 438.71,411.44
             443.58,406.71 451.20,399.92 454.00,394.00 Z
           M 493.00,396.00
           C 493.00,396.00 535.00,437.72 535.00,437.72
             537.90,440.27 547.66,449.90 551.00,449.82
             553.95,449.75 559.53,443.52 562.00,441.44
             562.00,441.44 589.00,419.42 589.00,419.42
             589.00,419.42 619.00,397.20 619.00,397.20
             643.47,380.22 669.04,365.59 682.75,338.00
             687.04,329.36 689.88,319.71 690.00,310.00
             690.12,299.80 690.50,294.78 686.55,285.00
             683.49,277.42 676.03,267.25 669.00,263.07
             654.32,254.35 629.82,257.40 615.00,264.32
             592.92,274.63 578.20,292.74 564.26,312.00
             564.26,312.00 553.02,327.00 553.02,327.00
             545.11,338.39 526.50,360.71 516.91,371.00
             516.91,371.00 493.00,396.00 493.00,396.00 Z
           M 370.00,473.00
           C 368.08,467.19 357.07,460.18 352.00,456.37
             335.24,443.81 317.99,431.94 300.00,421.20
             273.03,405.11 234.65,387.04 204.00,380.21
             190.47,377.19 178.88,373.50 165.00,378.09
             147.80,383.77 137.93,399.17 131.15,415.00
             120.58,439.69 117.46,468.47 121.30,495.00
             122.35,502.29 125.98,514.81 128.29,522.00
             135.98,545.86 152.58,568.61 180.00,567.99
             188.76,567.79 197.58,565.10 206.00,562.88
             224.27,558.07 243.90,550.29 261.00,542.22
             286.64,530.12 311.81,514.56 335.00,498.28
             335.00,498.28 370.00,473.00 370.00,473.00 Z
           M 577.00,472.00
           C 577.00,472.00 588.00,480.63 588.00,480.63
             588.00,480.63 626.00,508.26 626.00,508.26
             650.97,525.22 677.12,539.36 705.00,550.86
             719.72,556.93 750.59,567.82 766.00,568.00
             793.52,568.31 806.59,549.17 816.14,526.00
             821.56,512.85 827.07,486.17 826.91,471.96
             826.91,471.96 826.09,464.00 826.09,464.00
             824.89,446.63 821.68,428.93 814.29,413.00
             805.95,395.01 791.85,376.27 770.00,376.00
             770.00,376.00 765.00,376.00 765.00,376.00
             750.54,376.17 718.96,386.76 705.00,392.40
             685.93,400.10 666.70,408.92 649.00,419.45
             623.58,434.57 600.75,452.55 577.00,470.00
             577.00,470.00 577.00,472.00 577.00,472.00 Z
           M 551.00,491.16
           C 544.80,492.64 540.51,498.69 536.00,502.91
             536.00,502.91 506.00,532.00 506.00,532.00
             502.83,535.17 492.86,543.18 494.40,547.96
             495.25,550.63 503.24,557.89 505.58,560.28
             505.58,560.28 529.71,586.28 529.71,586.28
             529.71,586.28 560.62,626.00 560.62,626.00
             578.66,650.38 594.34,673.03 625.00,682.41
             629.49,683.79 633.27,685.10 638.00,685.71
             643.41,686.42 648.65,685.90 654.00,685.13
             691.73,679.71 696.46,635.89 683.83,607.00
             674.35,585.31 656.71,571.29 638.00,557.86
             638.00,557.86 588.00,521.34 588.00,521.34
             588.00,521.34 567.00,503.91 567.00,503.91
             562.57,499.83 556.65,492.98 551.00,491.16 Z
           M 396.00,491.71
           C 390.10,493.40 385.55,498.76 381.00,502.72
             381.00,502.72 357.01,522.72 357.01,522.72
             332.68,542.53 287.90,568.39 270.92,592.00
             268.23,595.75 265.24,601.73 263.31,606.00
             251.18,632.90 252.53,671.85 285.00,683.30
             289.86,685.02 295.85,685.94 301.00,686.00
             311.32,686.12 314.30,685.13 324.00,681.83
             357.90,670.29 375.38,640.17 395.58,613.00
             395.58,613.00 418.08,585.00 418.08,585.00
             426.43,575.07 435.52,565.32 444.83,556.29
             447.19,554.00 454.18,548.81 452.85,545.27
             452.22,543.61 441.82,532.85 440.00,531.00
             440.00,531.00 412.41,504.05 412.41,504.05
             408.27,499.72 401.94,492.63 396.00,491.71 Z
           M 474.00,569.00
           C 467.59,573.81 455.29,589.08 449.96,596.01
             449.96,596.01 417.95,641.00 417.95,641.00
             397.27,673.60 376.98,720.18 374.51,759.00
             374.19,764.13 375.99,773.15 377.81,778.00
             383.09,792.04 389.50,798.03 402.00,806.05
             402.00,806.05 411.00,811.63 411.00,811.63
             411.00,811.63 420.00,815.31 420.00,815.31
             429.11,819.34 428.94,818.84 438.00,821.43
             438.00,821.43 448.00,824.50 448.00,824.50
             461.55,827.70 480.31,827.86 494.00,825.38
             494.00,825.38 505.00,822.48 505.00,822.48
             515.64,819.74 524.15,817.42 534.00,812.16
             558.57,799.04 572.34,786.40 572.00,757.00
             571.85,744.77 566.05,723.83 562.07,712.00
             555.17,691.43 547.71,672.78 536.60,654.00
             516.18,619.46 500.17,599.14 474.00,569.00 Z" />
</svg>
